{"title":"Now.You.See.Me.2013.HDrip.Vie.[KSTE]","uid":9036702,"size":1620761207,"categoryP":"video","categoryS":"hd___movies","magnet":"?xt=urn:btih:e73c1e569f5fc4025da8a7bc6b30512935177e23&amp;dn=Now.You.See.Me.2013.HDrip.Vie.%5BKSTE%5D&amp;tr=udp%3A%2F%2Ftracker.openbittorrent.com%3A80&amp;tr=udp%3A%2F%2Fopen.demonii.com%3A1337&amp;tr=udp%3A%2F%2Ftracker.coppersurfer.tk%3A6969&amp;tr=udp%3A%2F%2Fexodus.desync.com%3A6969","seeders":5,"leechers":0,"uploader":"jessketeer","files":-1,"time":1381524200,"description":"VIETNAMESE HARDCODED SUBTTILE!\nVIETNAMESE HARDCODED SUBTTILE!\nVIETNAMESE HARDCODED SUBTTILE!\nVIETNAMESE HARDCODED SUBTTILE!\nVIETNAMESE HARDCODED SUBTTILE!\nVIETNAMESE HARDCODED SUBTTILE!\nVIETNAMESE HARDCODED SUBTTILE!\nVIETNAMESE HARDCODED SUBTTILE!\nVIETNAMESE HARDCODED SUBTTILE!\nVIETNAMESE HARDCODED SUBTTILE!\nVIETNAMESE HARDCODED SUBTTILE!\nVIETNAMESE HARDCODED SUBTTILE!\n\n\nFormat                                   : Matroska\nFormat version                           : Version 2\nFile size                                : 1.51 GiB\nDuration                                 : 2h 5mn\nOverall bit rate                         : 1 728 Kbps\nWriting application                      : Lavf54.59.106\nWriting library                          : Lavf54.59.106\n\nVideo\nID                                       : 1\nFormat                                   : AVC\nFormat/Info                              : Advanced Video Codec\nFormat profile                           : &lt;a class=&quot;__cf_email__&quot; href=&quot;/cdn-cgi/l/email-protection&quot; data-cfemail=&quot;3c74555b547c7008120c&quot;&gt;[email&amp;#160;protected]&lt;/a&gt;&lt;script cf-hash='f9e31' type=&quot;text/javascript&quot;&gt;\n/* &lt;![CDATA[ */!function(){try{var t=&quot;currentScript&quot;in document?document.currentScript:function(){for(var t=document.getElementsByTagName(&quot;script&quot;),e=t.length;e--;)if(t[e].getAttribute(&quot;cf-hash&quot;))return t[e]}();if(t&amp;&amp;t.previousSibling){var e,r,n,i,c=t.previousSibling,a=c.getAttribute(&quot;data-cfemail&quot;);if(a){for(e=&quot;&quot;,r=parseInt(a.substr(0,2),16),n=2;a.length-n;n+=2)i=parseInt(a.substr(n,2),16)^r,e+=String.fromCharCode(i);e=document.createTextNode(e),c.parentNode.replaceChild(e,c)}}}catch(u){}}();/* ]]&gt; */&lt;/script&gt;\nFormat settings, CABAC                   : Yes\nFormat settings, ReFrames                : 4 frames\nCodec ID                                 : V_MPEG4/ISO/AVC\nDuration                                 : 2h 5mn\nBit rate                                 : 1 373 Kbps\nNominal bit rate                         : 5 504 Kbps\nWidth                                    : 1 280 pixels\nHeight                                   : 528 pixels\nDisplay aspect ratio                     : 2.40:1\nOriginal display aspect ratio            : 2.40:1\nFrame rate mode                          : Constant\nFrame rate                               : 29.970 fps\nColor space                              : YUV\nChroma subsampling                       : 4:2:0\nBit depth                                : 8 bits\nScan type                                : Progressive\nBits/(Pixel*Frame)                       : 0.068\nStream size                              : 1.20 GiB (79%)\nWriting library                          : x264 core 133 r2334 a3ac64b\nEncoding settings                        : cabac=1 // deblock=1:-1:-1 / \nDefault                                  : Yes\nForced                                   : No\n\nAudio\nID                                       : 2\nFormat                                   : AC-3\nFormat/Info                              : Audio Coding 3\nMode extension                           : CM (complete main)\nFormat settings, Endianness              : Big\nCodec ID                                 : A_AC3\nDuration                                 : 2h 5mn\nBit rate mode                            : Constant\nBit rate                                 : 320 Kbps\nChannel(s)                               : 2 channels\nChannel positions                        : Front: L R\nSampling rate                            : 48.0 KHz\nBit depth                                : 16 bits\nCompression mode                         : Lossy\nStream size                              : 286 MiB (19%)\nDefault                                  : Yes\nForced                                   : No\n","torrent":{"xt":"urn:btih:e73c1e569f5fc4025da8a7bc6b30512935177e23","amp;dn":"Now.You.See.Me.2013.HDrip.Vie.%5BKSTE%5D","amp;tr":["udp%3A%2F%2Ftracker.openbittorrent.com%3A80","udp%3A%2F%2Fopen.demonii.com%3A1337","udp%3A%2F%2Ftracker.coppersurfer.tk%3A6969","udp%3A%2F%2Fexodus.desync.com%3A6969"],"infoHash":"e73c1e569f5fc4025da8a7bc6b30512935177e23","infoHashBuffer":{"type":"Buffer","data":[231,60,30,86,159,95,196,2,93,168,167,188,107,48,81,41,53,23,126,35]},"announce":[],"urlList":[]}}